RobotoDelta-XTRAmin.ufo
<glyph name="plus" format="1">
  <advance width="1170"/>
  <unicode hex="002B"/>
  <outline>
    <contour>
      <point x="214" y="592" type="line"/>
      <point x="956" y="592" type="line"/>
      <point x="956" y="756" type="line"/>
      <point x="214" y="756" type="line"/>
    </contour>
    <contour>
      <point x="495" y="184" type="line"/>
      <point x="675" y="184" type="line"/>
      <point x="675" y="1164" type="line"/>
      <point x="495" y="1164" type="line"/>
    </contour>
  </outline>
</glyph>
<glyph name="zero" format="1">
  <advance width="950"/>
  <unicode hex="0030"/>
  <outline>
    <contour>
      <point x="125" y="350" type="line" smooth="yes"/>
      <point x="125" y="188"/>
      <point x="310" y="-30"/>
      <point x="475" y="-30" type="qcurve" smooth="yes"/>
      <point x="638" y="-30"/>
      <point x="825" y="188"/>
      <point x="825" y="350" type="qcurve" smooth="yes"/>
      <point x="825" y="1106" type="line" smooth="yes"/>
      <point x="825" y="1272"/>
      <point x="638" y="1486"/>
      <point x="475" y="1486" type="qcurve" smooth="yes"/>
      <point x="310" y="1486"/>
      <point x="125" y="1272"/>
      <point x="125" y="1106" type="qcurve" smooth="yes"/>
    </contour>
    <contour>
      <point x="320" y="340" type="qcurve" smooth="yes"/>
      <point x="320" y="1116" type="line" smooth="yes"/>
      <point x="320" y="1203"/>
      <point x="395" y="1328"/>
      <point x="475" y="1328" type="qcurve" smooth="yes"/>
      <point x="555" y="1328"/>
      <point x="630" y="1203"/>
      <point x="630" y="1116" type="qcurve" smooth="yes"/>
      <point x="630" y="340" type="line" smooth="yes"/>
      <point x="630" y="258"/>
      <point x="555" y="128"/>
      <point x="475" y="128" type="qcurve" smooth="yes"/>
      <point x="395" y="128"/>
      <point x="320" y="258"/>
    </contour>
  </outline>
</glyph>
<glyph name="one" format="1">
  <advance width="950"/>
  <unicode hex="0031"/>
  <outline>
    <contour>
      <point x="435" y="0" type="line"/>
      <point x="627" y="0" type="line"/>
      <point x="627" y="1476" type="line"/>
      <point x="605" y="1476" type="line"/>
      <point x="207" y="1306" type="line"/>
      <point x="207" y="1120" type="line"/>
      <point x="435" y="1218" type="line"/>
    </contour>
  </outline>
</glyph>
<glyph name="three" format="1">
  <advance width="950"/>
  <unicode hex="0033"/>
  <outline>
    <contour>
      <point x="95" y="380" type="line" smooth="yes"/>
      <point x="95" y="200"/>
      <point x="296" y="-30"/>
      <point x="454" y="-30" type="qcurve" smooth="yes"/>
      <point x="611" y="-30"/>
      <point x="817" y="200"/>
      <point x="817" y="401" type="qcurve" smooth="yes"/>
      <point x="817" y="540"/>
      <point x="703" y="730"/>
      <point x="608" y="762" type="qcurve"/>
      <point x="608" y="766" type="line"/>
      <point x="695" y="816"/>
      <point x="778" y="1000"/>
      <point x="778" y="1100" type="qcurve" smooth="yes"/>
      <point x="778" y="1270"/>
      <point x="596" y="1486"/>
      <point x="454" y="1486" type="qcurve" smooth="yes"/>
      <point x="311" y="1486"/>
      <point x="125" y="1260"/>
      <point x="125" y="1100" type="qcurve" smooth="yes"/>
      <point x="125" y="1090" type="line"/>
      <point x="311" y="1090" type="line"/>
      <point x="311" y="1100" type="line" smooth="yes"/>
      <point x="311" y="1210"/>
      <point x="391" y="1328"/>
      <point x="454" y="1328" type="qcurve" smooth="yes"/>
      <point x="514" y="1328"/>
      <point x="586" y="1210"/>
      <point x="586" y="1090" type="qcurve" smooth="yes"/>
      <point x="586" y="970"/>
      <point x="498" y="836"/>
      <point x="418" y="836" type="qcurve" smooth="yes"/>
      <point x="339" y="836" type="line"/>
      <point x="339" y="682" type="line"/>
      <point x="425" y="682" type="line" smooth="yes"/>
      <point x="516" y="682"/>
      <point x="623" y="540"/>
      <point x="623" y="400" type="qcurve" smooth="yes"/>
      <point x="623" y="260"/>
      <point x="531" y="128"/>
      <point x="454" y="128" type="qcurve" smooth="yes"/>
      <point x="376" y="128"/>
      <point x="281" y="260"/>
      <point x="281" y="380" type="qcurve" smooth="yes"/>
      <point x="281" y="390" type="line"/>
      <point x="95" y="390" type="line"/>
    </contour>
  </outline>
</glyph>
<glyph name="eight" format="1">
  <advance width="950"/>
  <unicode hex="0038"/>
  <outline>
    <contour>
      <point x="119" y="386" type="qcurve" smooth="yes"/>
      <point x="119" y="188"/>
      <point x="317" y="-30"/>
      <point x="475" y="-30" type="qcurve" smooth="yes"/>
      <point x="633" y="-30"/>
      <point x="830" y="188"/>
      <point x="830" y="386" type="qcurve" smooth="yes"/>
      <point x="830" y="516"/>
      <point x="730" y="695"/>
      <point x="640" y="743" type="qcurve"/>
      <point x="640" y="747" type="line"/>
      <point x="709" y="793"/>
      <point x="796" y="967"/>
      <point x="796" y="1087" type="qcurve" smooth="yes"/>
      <point x="796" y="1267"/>
      <point x="618" y="1486"/>
      <point x="475" y="1486" type="qcurve" smooth="yes"/>
      <point x="332" y="1486"/>
      <point x="154" y="1267"/>
      <point x="154" y="1087" type="qcurve" smooth="yes"/>
      <point x="154" y="967"/>
      <point x="240" y="793"/>
      <point x="310" y="747" type="qcurve"/>
      <point x="310" y="743" type="line"/>
      <point x="220" y="695"/>
      <point x="119" y="516"/>
    </contour>
    <contour>
      <point x="308" y="396" type="qcurve" smooth="yes"/>
      <point x="308" y="516"/>
      <point x="389" y="666"/>
      <point x="475" y="666" type="qcurve" smooth="yes"/>
      <point x="560" y="666"/>
      <point x="641" y="516"/>
      <point x="641" y="396" type="qcurve" smooth="yes"/>
      <point x="641" y="276"/>
      <point x="560" y="128"/>
      <point x="475" y="128" type="qcurve" smooth="yes"/>
      <point x="389" y="128"/>
      <point x="308" y="276"/>
    </contour>
    <contour>
      <point x="338" y="1077" type="qcurve" smooth="yes"/>
      <point x="338" y="1187"/>
      <point x="404" y="1328"/>
      <point x="475" y="1328" type="qcurve" smooth="yes"/>
      <point x="545" y="1328"/>
      <point x="612" y="1187"/>
      <point x="612" y="1077" type="qcurve" smooth="yes"/>
      <point x="612" y="967"/>
      <point x="545" y="824"/>
      <point x="475" y="824" type="qcurve" smooth="yes"/>
      <point x="404" y="824"/>
      <point x="338" y="967"/>
    </contour>
  </outline>
</glyph>
<glyph name="nine" format="1">
  <advance width="950"/>
  <unicode hex="0039"/>
  <outline>
    <contour>
      <point x="100" y="1002" type="qcurve" smooth="yes"/>
      <point x="100" y="786"/>
      <point x="284" y="520"/>
      <point x="433" y="520" type="qcurve" smooth="yes"/>
      <point x="570" y="520"/>
      <point x="735" y="786"/>
      <point x="735" y="1002" type="qcurve"/>
      <point x="665" y="1002" type="line"/>
      <point x="665" y="847"/>
      <point x="543" y="678"/>
      <point x="463" y="678" type="qcurve" smooth="yes"/>
      <point x="381" y="678"/>
      <point x="291" y="847"/>
      <point x="291" y="1002" type="qcurve" smooth="yes"/>
      <point x="291" y="1157"/>
      <point x="381" y="1328"/>
      <point x="463" y="1328" type="qcurve" smooth="yes"/>
      <point x="548" y="1328"/>
      <point x="659" y="1112"/>
      <point x="659" y="852" type="qcurve" smooth="yes"/>
      <point x="659" y="802" type="line" smooth="yes"/>
      <point x="659" y="452"/>
      <point x="441" y="128"/>
      <point x="253" y="128" type="qcurve" smooth="yes"/>
      <point x="238" y="128" type="line"/>
      <point x="238" y="-30" type="line"/>
      <point x="253" y="-30" type="line" smooth="yes"/>
      <point x="538" y="-30"/>
      <point x="847" y="432"/>
      <point x="847" y="812" type="qcurve" smooth="yes"/>
      <point x="847" y="842" type="line" smooth="yes"/>
      <point x="847" y="1182"/>
      <point x="621" y="1486"/>
      <point x="463" y="1486" type="qcurve" smooth="yes"/>
      <point x="306" y="1486"/>
      <point x="100" y="1218"/>
    </contour>
  </outline>
</glyph>
<glyph name="E" format="1">
  <advance width="932"/>
  <unicode hex="0045"/>
  <outline>
    <contour>
      <point x="170" y="0" type="line"/>
      <point x="864" y="0" type="line"/>
      <point x="864" y="158" type="line"/>
      <point x="362" y="158" type="line"/>
      <point x="362" y="672" type="line"/>
      <point x="762" y="672" type="line"/>
      <point x="762" y="830" type="line"/>
      <point x="362" y="830" type="line"/>
      <point x="362" y="1298" type="line"/>
      <point x="854" y="1298" type="line"/>
      <point x="854" y="1456" type="line"/>
      <point x="170" y="1456" type="line"/>
    </contour>
  </outline>
</glyph>
<glyph name="b" format="1">
  <advance width="926"/>
  <unicode hex="0062"/>
  <outline>
    <contour>
      <point x="148" y="0" type="line"/>
      <point x="320" y="0" type="line"/>
      <point x="326" y="107" type="line"/>
      <point x="331" y="107" type="line"/>
      <point x="355.6445846935051" y="52.35331220135814"/>
      <point x="463.97297297297297" y="-20.0"/>
      <point x="536" y="-20" type="qcurve" smooth="yes"/>
      <point x="674.8923076923077" y="-20.0"/>
      <point x="841" y="280.0"/>
      <point x="841" y="510" type="qcurve" smooth="yes"/>
      <point x="841" y="542" type="line" smooth="yes"/>
      <point x="841" y="772.0"/>
      <point x="674.8923076923077" y="1072.0"/>
      <point x="536" y="1072" type="qcurve" smooth="yes"/>
      <point x="463.8571428571429" y="1072.0"/>
      <point x="363.1731978492289" y="1012.024440461535"/>
      <point x="334" y="958" type="qcurve"/>
      <point x="334" y="1536" type="line"/>
      <point x="148" y="1536" type="line"/>
    </contour>
    <contour>
      <point x="334" y="272" type="qcurve"/>
      <point x="334" y="780" type="line"/>
      <point x="352.8084576900379" y="835.4849501856119"/>
      <point x="429.76" y="920.0"/>
      <point x="486" y="920" type="qcurve" smooth="yes"/>
      <point x="571.1860465116279" y="920.0"/>
      <point x="651" y="702.0"/>
      <point x="651" y="542" type="qcurve" smooth="yes"/>
      <point x="651" y="510" type="line" smooth="yes"/>
      <point x="651" y="350.0"/>
      <point x="571.1860465116279" y="132.0"/>
      <point x="486" y="132" type="qcurve" smooth="yes"/>
      <point x="429.76" y="132.0"/>
      <point x="352.8084576900379" y="216.51504981438814"/>
    </contour>
  </outline>
</glyph>
<glyph name="g" format="1">
  <advance width="926"/>
  <unicode hex="0067"/>
  <outline>
    <contour>
      <point x="114" y="-284" type="line"/>
      <point x="170" y="-350"/>
      <point x="333" y="-436"/>
      <point x="429" y="-436" type="qcurve" smooth="yes"/>
      <point x="585" y="-436"/>
      <point x="778" y="-200"/>
      <point x="778" y="20" type="qcurve" smooth="yes"/>
      <point x="778" y="1052" type="line"/>
      <point x="606" y="1052" type="line"/>
      <point x="600" y="945" type="line"/>
      <point x="595" y="945" type="line"/>
      <point x="570" y="1000"/>
      <point x="462" y="1072"/>
      <point x="390" y="1072" type="qcurve" smooth="yes"/>
      <point x="251" y="1072"/>
      <point x="85" y="772"/>
      <point x="85" y="542" type="qcurve" smooth="yes"/>
      <point x="85" y="510" type="line" smooth="yes"/>
      <point x="85" y="280"/>
      <point x="251" y="-20"/>
      <point x="390" y="-20" type="qcurve" smooth="yes"/>
      <point x="462" y="-20"/>
      <point x="563" y="40"/>
      <point x="592" y="94" type="qcurve"/>
      <point x="592" y="20" type="line" smooth="yes"/>
      <point x="592" y="-120"/>
      <point x="502.3148148148148" y="-274.0"/>
      <point x="425" y="-274" type="qcurve" smooth="yes"/>
      <point x="357.5777777777778" y="-274.0"/>
      <point x="252.1621477932912" y="-193.7051374987228"/>
      <point x="220" y="-144" type="qcurve"/>
    </contour>
    <contour>
      <point x="275" y="510" type="qcurve" smooth="yes"/>
      <point x="275" y="542" type="line" smooth="yes"/>
      <point x="275" y="702"/>
      <point x="355" y="920"/>
      <point x="440" y="920" type="qcurve" smooth="yes"/>
      <point x="496" y="920"/>
      <point x="573" y="835"/>
      <point x="592" y="780" type="qcurve"/>
      <point x="592" y="272" type="line"/>
      <point x="573" y="217"/>
      <point x="496" y="132"/>
      <point x="440" y="132" type="qcurve" smooth="yes"/>
      <point x="355" y="132"/>
      <point x="275" y="350"/>
    </contour>
  </outline>
</glyph>
<glyph name="m" format="1">
  <advance width="1320"/>
  <unicode hex="006D"/>
  <outline>
    <contour>
      <point x="148" y="0" type="line"/>
      <point x="334" y="0" type="line"/>
      <point x="334" y="774" type="line"/>
      <point x="357" y="837"/>
      <point x="423" y="916"/>
      <point x="470" y="916" type="qcurve" smooth="yes"/>
      <point x="519" y="916"/>
      <point x="570" y="821"/>
      <point x="572" y="711" type="qcurve" smooth="yes"/>
      <point x="572" y="0" type="line"/>
      <point x="758" y="0" type="line"/>
      <point x="758" y="774" type="line"/>
      <point x="781" y="837"/>
      <point x="847" y="916"/>
      <point x="894" y="916" type="qcurve" smooth="yes"/>
      <point x="943" y="916"/>
      <point x="994" y="821"/>
      <point x="996" y="711" type="qcurve" smooth="yes"/>
      <point x="996" y="0" type="line"/>
      <point x="1182" y="0" type="line"/>
      <point x="1182" y="709" type="line" smooth="yes"/>
      <point x="1182" y="905"/>
      <point x="1059" y="1072"/>
      <point x="955" y="1072" type="qcurve" smooth="yes"/>
      <point x="875" y="1072"/>
      <point x="760" y="976"/>
      <point x="734" y="904" type="qcurve"/>
      <point x="730" y="904" type="line"/>
      <point x="704" y="988"/>
      <point x="605" y="1072"/>
      <point x="531" y="1072" type="qcurve" smooth="yes"/>
      <point x="469" y="1072"/>
      <point x="366" y="1007"/>
      <point x="331" y="947" type="qcurve"/>
      <point x="326" y="947" type="line"/>
      <point x="320" y="1052" type="line"/>
      <point x="148" y="1052" type="line"/>
    </contour>
  </outline>
</glyph>
<glyph name="p" format="1">
  <advance width="926"/>
  <unicode hex="0070"/>
  <outline>
    <contour>
      <point x="148" y="-416" type="line"/>
      <point x="334" y="-416" type="line"/>
      <point x="334" y="94" type="line"/>
      <point x="363" y="40"/>
      <point x="464" y="-20"/>
      <point x="536" y="-20" type="qcurve" smooth="yes"/>
      <point x="675" y="-20"/>
      <point x="841" y="280"/>
      <point x="841" y="510" type="qcurve" smooth="yes"/>
      <point x="841" y="542" type="line" smooth="yes"/>
      <point x="841" y="772"/>
      <point x="675" y="1072"/>
      <point x="536" y="1072" type="qcurve" smooth="yes"/>
      <point x="464" y="1072"/>
      <point x="356" y="1000"/>
      <point x="331" y="945" type="qcurve"/>
      <point x="326" y="945" type="line"/>
      <point x="320" y="1052" type="line"/>
      <point x="148" y="1052" type="line"/>
    </contour>
    <contour>
      <point x="334" y="272" type="qcurve"/>
      <point x="334" y="780" type="line"/>
      <point x="353" y="835"/>
      <point x="430" y="920"/>
      <point x="486" y="920" type="qcurve" smooth="yes"/>
      <point x="571" y="920"/>
      <point x="651" y="702"/>
      <point x="651" y="542" type="qcurve" smooth="yes"/>
      <point x="651" y="510" type="line" smooth="yes"/>
      <point x="651" y="350"/>
      <point x="571" y="132"/>
      <point x="486" y="132" type="qcurve" smooth="yes"/>
      <point x="430" y="132"/>
      <point x="353" y="217"/>
    </contour>
  </outline>
</glyph>
<glyph name="s" format="1">
  <advance width="789"/>
  <unicode hex="0073"/>
  <outline>
    <contour>
      <point x="80" y="310" type="line"/>
      <point x="80" y="305" type="line" smooth="yes"/>
      <point x="80" y="153"/>
      <point x="243" y="-30"/>
      <point x="398" y="-30" type="qcurve" smooth="yes"/>
      <point x="554" y="-30"/>
      <point x="709" y="150"/>
      <point x="709" y="290" type="qcurve" smooth="yes"/>
      <point x="709" y="420"/>
      <point x="584" y="564"/>
      <point x="470" y="610" type="qcurve" smooth="yes"/>
      <point x="356" y="656"/>
      <point x="294" y="730"/>
      <point x="294" y="790" type="qcurve" smooth="yes"/>
      <point x="294" y="850"/>
      <point x="343.2987012987013" y="930.0"/>
      <point x="398" y="930" type="qcurve" smooth="yes"/>
      <point x="455.2452830188679" y="930.0"/>
      <point x="509" y="840.0"/>
      <point x="509" y="760" type="qcurve" smooth="yes"/>
      <point x="509" y="755" type="line"/>
      <point x="694" y="755" type="line"/>
      <point x="694" y="760" type="line" smooth="yes"/>
      <point x="694" y="900"/>
      <point x="531" y="1082"/>
      <point x="398" y="1082" type="qcurve" smooth="yes"/>
      <point x="265" y="1082"/>
      <point x="108" y="910"/>
      <point x="108" y="780" type="qcurve" smooth="yes"/>
      <point x="108" y="660"/>
      <point x="230" y="520"/>
      <point x="344" y="474" type="qcurve" smooth="yes"/>
      <point x="458" y="428"/>
      <point x="523.0" y="350.0"/>
      <point x="523" y="280" type="qcurve" smooth="yes"/>
      <point x="523.0" y="210.0"/>
      <point x="457.2485549132948" y="122.0"/>
      <point x="398" y="122" type="qcurve" smooth="yes"/>
      <point x="338.6" y="122.0"/>
      <point x="266" y="214.0"/>
      <point x="266" y="305" type="qcurve" smooth="yes"/>
      <point x="266" y="310" type="line"/>
    </contour>
  </outline>
</glyph>
<glyph name="t" format="1">
  <advance width="504"/>
  <unicode hex="0074"/>
  <outline>
    <contour>
      <point x="0" y="910" type="line"/>
      <point x="454" y="910" type="line"/>
      <point x="454" y="1052" type="line"/>
      <point x="0" y="1052" type="line"/>
    </contour>
    <contour>
      <point x="120" y="260" type="line" smooth="yes"/>
      <point x="120" y="110.0"/>
      <point x="232" y="-30"/>
      <point x="326" y="-30" type="qcurve" smooth="yes"/>
      <point x="363" y="-30"/>
      <point x="425" y="-12"/>
      <point x="444" y="0" type="qcurve"/>
      <point x="444" y="152" type="line"/>
      <point x="428" y="143"/>
      <point x="390.5308641975309" y="130.0"/>
      <point x="373" y="130" type="qcurve" smooth="yes"/>
      <point x="337.7368421052632" y="130.0"/>
      <point x="306" y="190.0"/>
      <point x="306" y="260" type="qcurve" smooth="yes"/>
      <point x="306" y="1312" type="line"/>
      <point x="120" y="1312" type="line"/>
      <point x="120" y="996" type="line"/>
      <point x="120" y="966" type="line"/>
    </contour>
  </outline>
</glyph>
<glyph name="y" format="1">
  <advance width="706"/>
  <unicode hex="0079"/>
  <outline>
    <contour>
      <point x="40" y="-416" type="line"/>
      <point x="60" y="-426"/>
      <point x="106" y="-436"/>
      <point x="136" y="-436" type="qcurve" smooth="yes"/>
      <point x="229" y="-436"/>
      <point x="360" y="-280"/>
      <point x="396" y="-140" type="qcurve" smooth="yes"/>
      <point x="706" y="1052" type="line"/>
      <point x="536" y="1052" type="line"/>
      <point x="386" y="400" type="line" smooth="yes"/>
      <point x="377" y="360"/>
      <point x="366" y="280"/>
      <point x="362" y="240" type="qcurve"/>
      <point x="358" y="240" type="line"/>
      <point x="354" y="280"/>
      <point x="343" y="360"/>
      <point x="334" y="400" type="qcurve" smooth="yes"/>
      <point x="184" y="1052" type="line"/>
      <point x="10" y="1052" type="line"/>
      <point x="282" y="10" type="line"/>
      <point x="253" y="-100" type="line" smooth="yes"/>
      <point x="227" y="-199"/>
      <point x="173" y="-276"/>
      <point x="128" y="-276" type="qcurve" smooth="yes"/>
      <point x="106" y="-276"/>
      <point x="59" y="-266"/>
      <point x="40" y="-258" type="qcurve"/>
    </contour>
  </outline>
</glyph>
<glyph name="currency" format="1">
  <advance width="1142"/>
  <unicode hex="00A4"/>
  <outline>
    <contour>
      <point x="129" y="610" type="qcurve" smooth="yes"/>
      <point x="129" y="355"/>
      <point x="380" y="0"/>
      <point x="571" y="0" type="qcurve" smooth="yes"/>
      <point x="762" y="0"/>
      <point x="1013" y="355"/>
      <point x="1013" y="610" type="qcurve" smooth="yes"/>
      <point x="1013" y="865"/>
      <point x="762" y="1220"/>
      <point x="571" y="1220" type="qcurve" smooth="yes"/>
      <point x="380" y="1220"/>
      <point x="129" y="865"/>
    </contour>
    <contour>
      <point x="309" y="610" type="qcurve" smooth="yes"/>
      <point x="309" y="800"/>
      <point x="456" y="1060"/>
      <point x="571" y="1060" type="qcurve" smooth="yes"/>
      <point x="686" y="1060"/>
      <point x="833" y="800"/>
      <point x="833" y="610" type="qcurve" smooth="yes"/>
      <point x="833" y="420"/>
      <point x="686" y="160"/>
      <point x="571" y="160" type="qcurve" smooth="yes"/>
      <point x="456" y="160"/>
      <point x="309" y="420"/>
    </contour>
    <contour>
      <point x="94" y="1119" type="line"/>
      <point x="243" y="921" type="line"/>
      <point x="378" y="1038" type="line"/>
      <point x="229" y="1236" type="line"/>
    </contour>
    <contour>
      <point x="764" y="1038" type="line"/>
      <point x="899" y="921" type="line"/>
      <point x="1048" y="1119" type="line"/>
      <point x="913" y="1236" type="line"/>
    </contour>
    <contour>
      <point x="764" y="182" type="line"/>
      <point x="913" y="-16" type="line"/>
      <point x="1048" y="101" type="line"/>
      <point x="899" y="299" type="line"/>
    </contour>
    <contour>
      <point x="94" y="101" type="line"/>
      <point x="229" y="-16" type="line"/>
      <point x="378" y="182" type="line"/>
      <point x="243" y="299" type="line"/>
    </contour>
  </outline>
</glyph>
<glyph name="plusminus" format="1">
  <advance width="1170"/>
  <unicode hex="00B1"/>
  <outline>
    <contour>
      <point x="251" y="626" type="line"/>
      <point x="919" y="626" type="line"/>
      <point x="919" y="786" type="line"/>
      <point x="251" y="786" type="line"/>
    </contour>
    <contour>
      <point x="497" y="293" type="line"/>
      <point x="673" y="293" type="line"/>
      <point x="673" y="1119" type="line"/>
      <point x="497" y="1119" type="line"/>
    </contour>
    <contour>
      <point x="251" y="43" type="line"/>
      <point x="919" y="43" type="line"/>
      <point x="919" y="203" type="line"/>
      <point x="251" y="203" type="line"/>
    </contour>
  </outline>
</glyph>
<glyph name="ordmasculine" format="1">
  <advance width="736"/>
  <unicode hex="00BA"/>
  <outline>
    <contour>
      <point x="60" y="1027" type="line" smooth="yes"/>
      <point x="60" y="840"/>
      <point x="228" y="603"/>
      <point x="368" y="603" type="qcurve" smooth="yes"/>
      <point x="508" y="603"/>
      <point x="676" y="840"/>
      <point x="676" y="1027" type="qcurve" smooth="yes"/>
      <point x="676" y="1052" type="line" smooth="yes"/>
      <point x="676" y="1239"/>
      <point x="508" y="1476"/>
      <point x="368" y="1476" type="qcurve" smooth="yes"/>
      <point x="228" y="1476"/>
      <point x="60" y="1239"/>
      <point x="60" y="1052" type="qcurve" smooth="yes"/>
    </contour>
    <contour>
      <point x="230" y="1052" type="line" smooth="yes"/>
      <point x="230" y="1170"/>
      <point x="300" y="1336"/>
      <point x="368" y="1336" type="qcurve" smooth="yes"/>
      <point x="436" y="1336"/>
      <point x="506" y="1170"/>
      <point x="506" y="1052" type="qcurve" smooth="yes"/>
      <point x="506" y="1027" type="line" smooth="yes"/>
      <point x="506" y="909"/>
      <point x="436" y="743"/>
      <point x="368" y="743" type="qcurve" smooth="yes"/>
      <point x="300" y="743"/>
      <point x="230" y="909"/>
      <point x="230" y="1027" type="qcurve" smooth="yes"/>
    </contour>
  </outline>
</glyph>
<glyph name="guillemetright" format="1">
  <advance width="895"/>
  <unicode hex="00BB"/>
  <outline>
    <contour>
      <point x="220" y="204" type="line"/>
      <point x="478" y="592" type="line"/>
      <point x="478" y="612" type="line"/>
      <point x="220" y="1000" type="line"/>
      <point x="66" y="1000" type="line"/>
      <point x="258" y="602" type="line"/>
      <point x="66" y="204" type="line"/>
    </contour>
    <contour>
      <point x="565" y="204" type="line"/>
      <point x="823" y="592" type="line"/>
      <point x="823" y="612" type="line"/>
      <point x="565" y="1000" type="line"/>
      <point x="411" y="1000" type="line"/>
      <point x="603" y="602" type="line"/>
      <point x="411" y="204" type="line"/>
    </contour>
  </outline>
</glyph>
<glyph name="multiply" format="1">
  <advance width="1170"/>
  <unicode hex="00D7"/>
  <outline>
    <contour>
      <point x="251" y="447" type="line"/>
      <point x="365" y="329" type="line"/>
      <point x="919" y="903" type="line"/>
      <point x="805" y="1021" type="line"/>
    </contour>
    <contour>
      <point x="251" y="901" type="line"/>
      <point x="804" y="329" type="line"/>
      <point x="919" y="449" type="line"/>
      <point x="366" y="1021" type="line"/>
    </contour>
  </outline>
</glyph>
<glyph name="Oslash" format="1">
  <advance width="1153"/>
  <unicode hex="00D8"/>
  <outline>
    <contour>
      <point x="104" y="-80" type="line"/>
      <point x="288" y="-80" type="line"/>
      <point x="395" y="150" type="line"/>
      <point x="385" y="150" type="line"/>
      <point x="656" y="726" type="line"/>
      <point x="496" y="726" type="line"/>
      <point x="272" y="250" type="line"/>
      <point x="264" y="250" type="line"/>
    </contour>
    <contour>
      <point x="496" y="726" type="line"/>
      <point x="656" y="726" type="line"/>
      <point x="881" y="1202" type="line"/>
      <point x="890" y="1202" type="line"/>
      <point x="1049" y="1532" type="line"/>
      <point x="864" y="1532" type="line"/>
      <point x="757" y="1302" type="line"/>
      <point x="766" y="1302" type="line"/>
    </contour>
    <contour>
      <point x="115" y="682" type="line" smooth="yes"/>
      <point x="115" y="346"/>
      <point x="373" y="-30"/>
      <point x="577" y="-30" type="qcurve" smooth="yes"/>
      <point x="781" y="-30"/>
      <point x="1038" y="346"/>
      <point x="1038" y="682" type="qcurve" smooth="yes"/>
      <point x="1038" y="774" type="line" smooth="yes"/>
      <point x="1038" y="1110"/>
      <point x="781" y="1486"/>
      <point x="577" y="1486" type="qcurve" smooth="yes"/>
      <point x="373" y="1486"/>
      <point x="115" y="1110"/>
      <point x="115" y="774" type="qcurve" smooth="yes"/>
    </contour>
    <contour>
      <point x="309" y="682" type="qcurve" smooth="yes"/>
      <point x="309" y="774" type="line" smooth="yes"/>
      <point x="309" y="1030"/>
      <point x="453" y="1322"/>
      <point x="577" y="1322" type="qcurve" smooth="yes"/>
      <point x="700" y="1322"/>
      <point x="844" y="1030"/>
      <point x="844" y="774" type="qcurve" smooth="yes"/>
      <point x="844" y="682" type="line" smooth="yes"/>
      <point x="844" y="426"/>
      <point x="701" y="134"/>
      <point x="577" y="134" type="qcurve" smooth="yes"/>
      <point x="453" y="134"/>
      <point x="309" y="426"/>
    </contour>
  </outline>
</glyph>
<glyph name="germandbls" format="1">
  <advance width="963"/>
  <unicode hex="00DF"/>
  <outline>
    <contour>
      <point x="140" y="0" type="line"/>
      <point x="326" y="0" type="line"/>
      <point x="326" y="1110" type="line" smooth="yes"/>
      <point x="326" y="1260.0"/>
      <point x="386.5625" y="1404.0"/>
      <point x="440" y="1404" type="qcurve" smooth="yes"/>
      <point x="492.3972602739726" y="1404.0"/>
      <point x="542.0" y="1290.0"/>
      <point x="542" y="1210" type="qcurve" smooth="yes"/>
      <point x="542" y="1154"/>
      <point x="515" y="1067"/>
      <point x="497" y="1029" type="qcurve" smooth="yes"/>
      <point x="476" y="984"/>
      <point x="438" y="888"/>
      <point x="438" y="822" type="qcurve" smooth="yes"/>
      <point x="438" y="730"/>
      <point x="508" y="603"/>
      <point x="552" y="553" type="qcurve" smooth="yes"/>
      <point x="605" y="494"/>
      <point x="700" y="385"/>
      <point x="700" y="308" type="qcurve" smooth="yes"/>
      <point x="700.0" y="231.0"/>
      <point x="638.909090909091" y="132.0"/>
      <point x="580" y="132" type="qcurve" smooth="yes"/>
      <point x="528.1428571428572" y="132.0"/>
      <point x="439.35915214855174" y="182.6152139373903"/>
      <point x="415" y="206" type="qcurve"/>
      <point x="370" y="60" type="line"/>
      <point x="399.3494798379631" y="30.6505201620369"/>
      <point x="516.2894736842105" y="-20.0"/>
      <point x="588" y="-20" type="qcurve" smooth="yes"/>
      <point x="713.2456140350877" y="-20.0"/>
      <point x="883.0" y="150.0"/>
      <point x="883" y="316" type="qcurve" smooth="yes"/>
      <point x="883" y="436"/>
      <point x="764" y="593"/>
      <point x="706" y="657" type="qcurve" smooth="yes"/>
      <point x="673" y="695"/>
      <point x="620" y="769"/>
      <point x="620" y="820" type="qcurve" smooth="yes"/>
      <point x="620" y="867"/>
      <point x="646" y="939"/>
      <point x="663" y="975" type="qcurve" smooth="yes"/>
      <point x="682" y="1019"/>
      <point x="717" y="1130"/>
      <point x="717" y="1220" type="qcurve" smooth="yes"/>
      <point x="717" y="1360"/>
      <point x="568" y="1556"/>
      <point x="440" y="1556" type="qcurve" smooth="yes"/>
      <point x="313" y="1556"/>
      <point x="140" y="1330"/>
      <point x="140" y="1110" type="qcurve" smooth="yes"/>
    </contour>
  </outline>
</glyph>
<glyph name="OE" format="1">
  <advance width="1473"/>
  <unicode hex="0152"/>
  <outline>
    <contour>
      <point x="115" y="682" type="line" smooth="yes"/>
      <point x="115" y="346"/>
      <point x="374" y="-30"/>
      <point x="577" y="-30" type="qcurve" smooth="yes"/>
      <point x="656" y="-30"/>
      <point x="796" y="50"/>
      <point x="853" y="128" type="qcurve"/>
      <point x="853" y="386" type="line"/>
      <point x="814" y="265"/>
      <point x="671" y="134"/>
      <point x="577" y="134" type="qcurve" smooth="yes"/>
      <point x="456" y="134"/>
      <point x="309" y="426"/>
      <point x="309" y="682" type="qcurve" smooth="yes"/>
      <point x="309" y="774" type="line" smooth="yes"/>
      <point x="309" y="1030"/>
      <point x="456" y="1322"/>
      <point x="577" y="1322" type="qcurve" smooth="yes"/>
      <point x="671" y="1322"/>
      <point x="814" y="1191"/>
      <point x="853" y="1070" type="qcurve"/>
      <point x="853" y="1328" type="line"/>
      <point x="796" y="1406"/>
      <point x="656" y="1486"/>
      <point x="577" y="1486" type="qcurve" smooth="yes"/>
      <point x="374" y="1486"/>
      <point x="115" y="1110"/>
      <point x="115" y="774" type="qcurve" smooth="yes"/>
    </contour>
    <contour>
      <point x="787" y="0" type="line"/>
      <point x="1405" y="0" type="line"/>
      <point x="1405" y="158" type="line"/>
      <point x="979" y="158" type="line"/>
      <point x="979" y="672" type="line"/>
      <point x="1328" y="672" type="line"/>
      <point x="1328" y="830" type="line"/>
      <point x="979" y="830" type="line"/>
      <point x="979" y="1298" type="line"/>
      <point x="1397" y="1298" type="line"/>
      <point x="1397" y="1456" type="line"/>
      <point x="787" y="1456" type="line"/>
    </contour>
  </outline>
</glyph>
<glyph name="bitcoin" format="1">
  <advance width="975"/>
  <outline>
    <contour>
      <point x="170" y="0" type="line"/>
      <point x="515" y="0" type="line" smooth="yes"/>
      <point x="677" y="0"/>
      <point x="875" y="220"/>
      <point x="875" y="420" type="qcurve" smooth="yes"/>
      <point x="875" y="560"/>
      <point x="770" y="732"/>
      <point x="687" y="764" type="qcurve"/>
      <point x="687" y="768" type="line"/>
      <point x="755" y="800"/>
      <point x="846" y="950"/>
      <point x="846" y="1070" type="qcurve" smooth="yes"/>
      <point x="846" y="1270"/>
      <point x="657" y="1456"/>
      <point x="492" y="1456" type="qcurve" smooth="yes"/>
      <point x="170" y="1456" type="line"/>
    </contour>
    <contour>
      <point x="358" y="158" type="line"/>
      <point x="358" y="680" type="line"/>
      <point x="515" y="680" type="line" smooth="yes"/>
      <point x="602" y="680"/>
      <point x="684" y="540"/>
      <point x="684" y="420" type="qcurve" smooth="yes"/>
      <point x="684" y="300"/>
      <point x="602" y="158"/>
      <point x="515" y="158" type="qcurve" smooth="yes"/>
    </contour>
    <contour>
      <point x="358" y="836" type="line"/>
      <point x="358" y="1298" type="line"/>
      <point x="492" y="1298" type="line" smooth="yes"/>
      <point x="579" y="1298"/>
      <point x="656" y="1180"/>
      <point x="656" y="1070" type="qcurve" smooth="yes"/>
      <point x="656" y="960"/>
      <point x="579" y="836"/>
      <point x="492" y="836" type="qcurve" smooth="yes"/>
    </contour>
    <contour>
      <point x="72" y="366" type="line"/>
      <point x="239" y="366" type="line"/>
      <point x="242" y="370" type="line"/>
      <point x="521" y="370" type="line"/>
      <point x="521" y="518" type="line"/>
      <point x="242" y="518" type="line"/>
      <point x="239" y="522" type="line"/>
      <point x="72" y="522" type="line"/>
    </contour>
  </outline>
</glyph>
